<svg width="14" height="14" viewBox="0 0 14 14" fill="none" xmlns="http://www.w3.org/2000/svg">
<path d="M13.9926 7.13097C13.9926 6.5574 13.945 6.13884 13.8419 5.70479H7.13943V8.29361H11.0736C10.9943 8.93697 10.566 9.90586 9.61417 10.5569L9.60083 10.6436L11.72 12.2479L11.8668 12.2622C13.2152 11.0453 13.9926 9.25475 13.9926 7.13097Z" fill="#4285F4"/>
<path d="M7.13943 13.9519C9.06686 13.9519 10.6849 13.3318 11.8668 12.2622L9.61417 10.5569C9.01136 10.9677 8.20228 11.2545 7.13943 11.2545C5.25165 11.2545 3.64942 10.0376 3.07827 8.35565L2.99455 8.3626L0.790979 10.0291L0.762161 10.1074C1.93607 12.3862 4.34738 13.9519 7.13943 13.9519Z" fill="#34A853"/>
<path d="M3.07822 8.35565C2.92752 7.92159 2.8403 7.45649 2.8403 6.97595C2.8403 6.49536 2.92752 6.03031 3.07029 5.59626L3.0663 5.50381L0.835117 3.81056L0.762116 3.84449C0.278291 4.79014 0.000671387 5.85205 0.000671387 6.97595C0.000671387 8.09985 0.278291 9.16172 0.762116 10.1074L3.07822 8.35565Z" fill="#FBBC05"/>
<path d="M7.13943 2.69735C8.4799 2.69735 9.38412 3.26317 9.89972 3.73602L11.9144 1.81375C10.6771 0.689847 9.06686 0 7.13943 0C4.34738 0 1.93607 1.5657 0.762161 3.8445L3.07034 5.59626C3.64942 3.91428 5.25165 2.69735 7.13943 2.69735Z" fill="#EB4335"/>
</svg>
